<svg width="203" height="71" viewBox="0 0 203 71" fill="none" xmlns="http://www.w3.org/2000/svg">
    <path d="M39.488 55.64C36.512 59.672 31.616 62.36 26.144 62.36C18.848 62.36 12.608 57.56 10.4 50.936H37.856H41.888H50.912C51.2 49.304 51.392 47.48 51.392 45.752C51.392 31.736 40.064 20.408 26.144 20.408C12.128 20.408 0.8 31.736 0.8 45.752C0.8 59.672 12.128 71 26.144 71C35.552 71 43.808 65.816 48.128 58.232L39.488 55.64ZM26.144 29.144C34.112 29.144 40.832 34.808 42.464 42.296H9.92C11.456 34.808 18.176 29.144 26.144 29.144Z" fill="white"/>
    <path d="M103.127 28.952C106.391 25.976 108.503 21.656 108.503 16.856C108.503 7.928 101.207 0.631996 92.279 0.631996H61.175V71H97.175C108.983 71 118.583 61.4 118.583 49.496C118.583 39.8 112.055 31.544 103.127 28.952ZM72.983 11.192H89.591C92.759 11.192 95.255 13.784 95.255 16.856C95.255 20.024 92.759 22.616 89.591 22.616H72.983V11.192ZM94.391 59.384H72.887V37.88H94.391C100.343 37.88 105.239 42.68 105.239 48.632C105.239 54.584 100.343 59.384 94.391 59.384ZM128.115 71H140.019V0.631996H128.115V71ZM174.349 28.472L181.933 37.976L202.477 12.536V0.631996H149.677V12.536H187.213L174.349 28.472ZM177.805 43.16L170.125 33.656L149.677 59.096V71H202.477V59.096H164.941L177.805 43.16Z" fill="#F7B22C"/>
</svg>
